<svg width="176.000000" height="52.000000" viewBox="0 0 176 52" fill="none" xmlns="http://www.w3.org/2000/svg" xmlns:xlink="http://www.w3.org/1999/xlink">
	<desc>
			Created with Pixso.
	</desc>
	<defs/>
	<path id="__logo" d="M7.76 23.38L10.41 22.07L14.59 15.79L15.87 15.26L17.23 21.63L15.44 21.89L14.08 19.28L13.05 23.38L17.57 23.38L22.27 24.6L24.14 23.38L27.3 26.69L28.67 20.59L30.89 22.85L32.25 20.93L34.47 20.32L37.71 17.27L38.22 15.79L40.87 16.22L41.98 17.71L40.02 21.89L44.88 19.36L44.88 18.14L46.76 17.71L48.81 19.8L50.85 17.27L50.85 15.53L54.18 13.17L55.55 11.16L57.68 11.16L61.43 3.4L64.68 0L65.87 1.91L64 4.36L64.68 5.93L66.47 6.28L67.92 12.73L67.92 18.14L70.48 21.72L71.76 26.69L67.32 23.81L65.36 15.53L64.17 15.79L64 21.37L60.75 26.69L59.81 34.81L62.03 35.33L62.97 34.2L65.1 36.64L66.73 43.97L66.56 48.68L64.51 48.68L63.74 42.05L62.29 44.06L59.13 43.36L56.57 41.18L53.67 42.22L53.84 46.93L51.54 47.55L48.12 50.16L44.03 49.64L42.41 48.68L39.85 49.12L40.7 50.16L38.65 51.38L37.03 50.6L33.96 52L29.26 49.64L27.47 45.45L25.94 45.63L24.14 44.14L24.06 43.01L18.34 42.4L17.4 45.54L13.82 43.88L12.03 40.83L8.19 40.83L7.76 45.71L5.54 46.41L4.43 50.86L3.58 50.08L0 40.74L4.26 38.65L3.58 34.55L2.9 30.36L4.77 27.65L4.18 26L6.74 23.2L7.76 23.38ZM24.4 19.89L24.4 21.63L22.69 21.63L22.69 19.45L24.31 17.97L26.96 16.4L29.95 16.4L27.39 17.71L24.4 19.89ZM94.55 41L89.83 41L89.83 23.54L97.34 23.54C101.2 23.54 103.79 26 103.79 29.71C103.79 33.47 101.13 35.81 97.17 35.81L94.55 35.81L94.55 41ZM94.55 27.33L94.55 32.13L96.21 32.13C97.87 32.13 98.87 31.2 98.87 29.71C98.87 28.21 97.87 27.33 96.21 27.33L94.55 27.33ZM118.36 34.48C118.36 38.51 115.85 41.23 111.6 41.23C107.35 41.23 104.84 38.51 104.84 34.48C104.84 30.46 107.35 27.73 111.6 27.73C115.85 27.73 118.36 30.46 118.36 34.48ZM132.84 35.54C132.79 39.01 130.42 41.23 126.55 41.23C122.3 41.23 119.79 38.51 119.79 34.48C119.79 30.46 122.3 27.73 126.55 27.73C130.39 27.73 132.81 29.95 132.84 33.36L128.49 33.36C128.36 31.99 127.65 31.25 126.62 31.25C125.39 31.25 124.58 32.3 124.58 34.45C124.58 36.6 125.39 37.65 126.62 37.65C127.65 37.65 128.39 36.91 128.49 35.54L132.84 35.54ZM147.34 35.54C147.29 39.01 144.92 41.23 141.06 41.23C136.81 41.23 134.3 38.51 134.3 34.48C134.3 30.46 136.81 27.73 141.06 27.73C144.9 27.73 147.32 29.95 147.34 33.36L142.99 33.36C142.87 31.99 142.16 31.25 141.13 31.25C139.89 31.25 139.09 32.3 139.09 34.45C139.09 36.6 139.89 37.65 141.13 37.65C142.15 37.65 142.89 36.91 142.99 35.54L147.34 35.54ZM153.7 27.9L153.7 35L157.33 27.9L161.75 27.9L161.75 41L157.33 41L157.33 33.87L153.7 41L149.28 41L149.28 27.9L153.7 27.9ZM176 41L171.65 41L171.65 36.67L170.14 36.67L167.94 41L163.63 41L166.2 35.93C164.65 35.21 163.76 33.99 163.76 32.51C163.76 32.5 163.76 32.49 163.76 32.47C163.76 32.46 163.76 32.44 163.76 32.43C163.76 29.79 166.14 27.9 169.88 27.9L176 27.9L176 41ZM109.63 34.45C109.63 36.5 110.38 37.76 111.63 37.76C112.82 37.76 113.57 36.5 113.57 34.45C113.57 32.4 112.82 31.14 111.63 31.14C110.38 31.14 109.63 32.4 109.63 34.45ZM169.98 33.84L171.65 33.84L171.65 31.42L169.88 31.42C168.72 31.42 168.18 32.07 168.18 32.61C168.18 32.62 168.18 32.63 168.18 32.64C168.18 32.66 168.18 32.67 168.18 32.68C168.18 33.25 168.76 33.84 169.98 33.84ZM68.43 39.61L64.51 33.67L64.51 32.8L68.09 36.64L69.71 39.08L68.43 39.61Z" fill="#FFFFFF" fill-opacity="1.000000" fill-rule="evenodd"/>
</svg>
